<?xml version="1.0" encoding="UTF-8" standalone="no"?>
<!-- Created with Inkscape (http://www.inkscape.org/) -->

<svg
   version="1.1"
   id="svg2"
   width="4266.6665"
   height="2666.6667"
   viewBox="0 0 4266.6665 2666.6667"
   sodipodi:docname="logo_MC.ai"
   xmlns:inkscape="http://www.inkscape.org/namespaces/inkscape"
   xmlns:sodipodi="http://sodipodi.sourceforge.net/DTD/sodipodi-0.dtd"
   xmlns="http://www.w3.org/2000/svg"
   xmlns:svg="http://www.w3.org/2000/svg">
  <defs
     id="defs6">
    <clipPath
       clipPathUnits="userSpaceOnUse"
       id="clipPath26">
      <path
         d="M 0,2000 H 3200 V 0 H 0 Z"
         id="path24" />
    </clipPath>
  </defs>
  <sodipodi:namedview
     id="namedview4"
     pagecolor="#ffffff"
     bordercolor="#000000"
     borderopacity="0.25"
     inkscape:showpageshadow="2"
     inkscape:pageopacity="0.0"
     inkscape:pagecheckerboard="0"
     inkscape:deskcolor="#d1d1d1" />
  <g
     id="g8"
     inkscape:groupmode="layer"
     inkscape:label="logo_MC"
     transform="matrix(1.3333333,0,0,-1.3333333,0,2666.6667)">
    <path
       d="M 0,0 H 3200 V 2000 H 0 Z"
       style="fill:#ffffff;fill-opacity:1;fill-rule:nonzero;stroke:none"
       id="path10" />
    <text
       xml:space="preserve"
       transform="matrix(1,0,0,-1,1000.6367,827.46)"
       style="font-style:italic;font-variant:normal;font-weight:normal;font-stretch:normal;font-size:369.222px;font-family:DVN-Shrikhand;-inkscape-font-specification:DVNShrikhand-Regular;writing-mode:lr-tb;fill:#c15805;fill-opacity:1;fill-rule:nonzero;stroke:none"
       id="text14"><tspan
         x="0 367.3757 608.10828 667.18378 906.80872 1154.1874 1374.2435"
         y="0"
         sodipodi:role="line"
         id="tspan12">MC Shop</tspan></text>
    <text
       xml:space="preserve"
       transform="matrix(1,0,0,-1,1088.9609,718.5557)"
       style="font-variant:normal;font-weight:300;font-stretch:normal;font-size:89.8369px;font-family:'Montserrat Light';-inkscape-font-specification:Montserrat-Light;writing-mode:lr-tb;fill:#c15805;fill-opacity:1;fill-rule:nonzero;stroke:none"
       id="text18"><tspan
         x="0 84.35685 168.7137 250.2856 275.43994 378.30319 435.34961 485.47861 553.21564 616.10144 682.39209 706.01923 762.25714 825.14294"
         y="0"
         sodipodi:role="line"
         id="tspan16">www.mcshop.com</tspan></text>
    <g
       id="g20">
      <g
         id="g22"
         clip-path="url(#clipPath26)">
        <g
           id="g28"
           transform="translate(1290.0845,1333.0449)">
          <path
             d="m 0,0 c 0,-17.524 -14.206,-31.729 -31.729,-31.729 -17.524,0 -31.73,14.205 -31.73,31.729 0,17.524 14.206,31.729 31.73,31.729 C -14.206,31.729 0,17.524 0,0"
             style="fill:#c15805;fill-opacity:1;fill-rule:nonzero;stroke:none"
             id="path30" />
        </g>
        <g
           id="g32"
           transform="translate(1238.7969,575.7324)">
          <path
             d="m 0,0 c -62.057,-19.543 -122.639,-44.195 -181.204,-73.347 -42.852,-21.688 -84.187,-44.841 -124.391,-72.153 -0.82,84.406 -9.167,168.562 -24.577,251.271 l -9.416,-30.767 c -0.3,-0.98 -0.654,-1.959 -1.062,-2.885 -4.766,-11.005 -15.322,-18.112 -27.187,-18.828 10.425,-82.827 13.765,-166.396 9.204,-249.491 v -0.002 -60.344 l 43.825,39.51 c 44.765,40.355 98.36,76.974 152.443,108.934 54.622,32.015 111.874,60.04 171.177,83.264 118.477,46.894 244.959,74.995 373.472,83.16 C 253.542,58.942 123.986,39.527 0,0"
             style="fill:#c15805;fill-opacity:1;fill-rule:nonzero;stroke:none"
             id="path34" />
        </g>
        <g
           id="g36"
           transform="translate(814.9468,1425.4297)">
          <path
             d="m 0,0 c -11.607,79.28 34.298,160.209 106.155,189.638 70.71,32.089 161.084,9.966 210.801,-52.87 12.741,-15.573 21.312,-32.808 31.591,-53.498 L 378.87,23.887 C 379.874,22 380.894,20.118 381.897,18.23 319.628,-8.574 256.986,-34.618 193.902,-59.175 142.114,-79.317 89.983,-98.558 37.426,-116.255 L 17.249,-59.686 C 9.248,-38.015 2.588,-19.953 0,0 m -2.854,-532.425 37.496,8.806 c -17.519,50.183 -37.447,99.483 -60.041,147.521 -29.843,62.911 -63.061,123.642 -102.832,181.553 53.4,9.446 105.708,22.623 157.607,36.899 11.622,-21.816 23.578,-43.49 35.812,-65.042 -9.498,-5.484 -16.184,-15.327 -16.184,-27.082 0,-17.524 14.206,-31.73 31.73,-31.73 17.524,0 31.73,14.206 31.73,31.73 0,17.524 -14.206,31.73 -31.73,31.73 -3.322,0 -6.355,-0.944 -9.363,-1.891 -7.023,22.826 -14.293,45.544 -21.896,68.12 53.775,15.303 107.02,32.1 159.926,49.807 66.778,22.382 132.803,46.562 198.616,71.431 11.419,-21.037 23.077,-41.973 35.391,-62.625 -6.517,22.923 -13.678,45.568 -21.079,68.112 32.188,12.244 64.423,24.304 96.51,37.009 6.681,-40.389 16.05,-80.149 28.446,-118.586 16.08,-52.392 39.134,-100.891 55.561,-151.851 -6.222,53.523 -19.392,106.054 -24.653,158.487 -6.065,52.399 -6.383,104.653 -2.262,156.308 v 0.007 48.665 L 531.63,84.61 C 489.608,65.313 447.035,46.752 404.463,28.233 c -0.66,1.948 -1.301,3.904 -1.961,5.853 l -22.4,62.8 c -6.855,20.157 -16.489,43.731 -30.067,64.001 -26.729,41.447 -69.992,71.287 -117.487,85.944 C 184.566,261.207 131.65,256.949 85.332,237.897 39.693,217.271 0.294,181.692 -22.166,136.919 -44.087,92.311 -52.058,40.364 -40.241,-7.52 c 5.429,-23.785 15.972,-46.966 25.935,-65.783 l 26.321,-51.544 c -54.847,-17.862 -110.151,-34.532 -166.197,-46.019 l -22.256,-4.561 13.462,-17.465 h 0.002 c 41.563,-61.123 76.416,-128.823 106.542,-197.282 20.329,-46.473 38.078,-94.021 53.578,-142.251"
             style="fill:#c15805;fill-opacity:1;fill-rule:nonzero;stroke:none"
             id="path38" />
        </g>
        <g
           id="g40"
           transform="translate(966.7539,870.9258)">
          <path
             d="m 0,0 c 0.979,-0.271 1.973,-0.408 2.939,-0.408 4.531,0 8.695,2.967 10.028,7.512 2.028,6.912 2.436,15.103 1.075,21.389 -4.735,22.017 -26.424,36.658 -48.794,32.494 -5.675,-1.061 -9.416,-6.531 -8.355,-12.192 1.061,-5.688 6.504,-9.334 12.191,-8.382 11.104,2.068 22.153,-5.252 24.52,-16.328 0.64,-2.912 0.341,-7.565 -0.693,-11.104 C -8.708,7.43 -5.538,1.633 0,0"
             style="fill:#c15805;fill-opacity:1;fill-rule:nonzero;stroke:none"
             id="path42" />
        </g>
        <g
           id="g44"
           transform="translate(943.0811,889.1201)">
          <path
             d="M 0,0 C 0.333,0.722 0.401,1.548 0.251,2.247 -0.18,4.268 -2.364,5.751 -4.63,4.941 L -239.758,-50.16 c -1.893,-0.649 -2.771,-2.623 -2.407,-4.332 0.216,-1.011 0.915,-1.999 1.997,-2.499 l 74.645,-37.602 c 1.098,-0.578 1.702,-1.505 1.935,-2.592 0.249,-1.167 -0.03,-2.526 -1.046,-3.473 l -68.618,-64.451 c -0.939,-0.933 -1.312,-2.231 -1.047,-3.474 0.15,-0.699 0.438,-1.289 0.882,-1.842 l 43.292,-46.002 c 1.375,-1.493 3.744,-1.556 5.222,-0.103 l 68.635,64.373 c 1.893,1.784 4.955,1.139 5.954,-1.248 l 32.891,-76.818 c 1.303,-3.052 5.603,-3.029 6.904,0.01 z"
             style="fill:#c15805;fill-opacity:1;fill-rule:nonzero;stroke:none"
             id="path46" />
        </g>
      </g>
    </g>
  </g>
</svg>
